<svg width="62" height="52" viewBox="0 0 62 52" fill="none" xmlns="http://www.w3.org/2000/svg">
<path d="M54.5 25.4646C54.5 28.8224 53.8577 30.8237 52.9239 32.0486C52.0182 33.2367 50.6641 33.9203 48.6894 34.2523C46.6781 34.5904 44.2056 34.5334 41.2533 34.3703C40.6343 34.3361 39.9957 34.2974 39.3401 34.2576C36.9252 34.1112 34.2787 33.9507 31.5208 33.9507C28.7928 33.9507 26.133 34.1078 23.6756 34.253C22.9757 34.2943 22.2922 34.3347 21.6282 34.3702C18.5817 34.5331 15.9695 34.5915 13.8178 34.25C11.6898 33.9124 10.1981 33.2117 9.2039 32.0045C8.19668 30.7814 7.5 28.7963 7.5 25.4646C7.5 12.2031 18.0472 1.5 31 1.5C43.9528 1.5 54.5 12.2031 54.5 25.4646Z" stroke="#FF5252" stroke-width="3"/>
<path d="M54 29.8485C54 41.464 43.8637 51 31.2069 51C18.5501 51 8.41382 41.464 8.41382 29.8485C8.41382 18.2329 18.5501 8.69696 31.2069 8.69696C43.8637 8.69696 54 18.2329 54 29.8485Z" fill="#F2F2F2" stroke="black" stroke-width="2"/>
<path d="M54 29.8485C54 41.464 43.8637 51 31.2069 51C18.5501 51 8.41382 41.464 8.41382 29.8485C8.41382 18.2329 18.5501 8.69696 31.2069 8.69696C43.8637 8.69696 54 18.2329 54 29.8485Z" stroke="black" stroke-width="2"/>
<path d="M28.1034 6.6667L31.2069 4.09094H34.3103L36.3793 6.6667L39.4828 7.18185L42.5862 8.72731L42.069 14.9091L34.8276 17.4849L28.1034 14.9091L23.9655 11.8182L28.1034 6.6667Z" fill="#F2F2F2"/>
<path d="M33.7583 9.96318C33.4857 9.5558 33.5708 9.00741 33.9542 8.70193L35.8621 7.18181L36.3084 6.84845C37.3476 6.07215 38.6569 5.73963 39.9412 5.92235V5.92235C40.9842 6.07075 41.9551 6.55324 42.7016 7.29667L42.9387 7.53282C43.7064 8.29744 44.1379 9.33635 44.1379 10.4199V10.4199C44.1379 11.632 43.5983 12.7812 42.6656 13.5553L42.3338 13.8307C41.4941 14.5276 40.4372 14.9091 39.346 14.9091H37.669C37.5056 14.9091 37.3488 14.8443 37.233 14.729V14.729C36.8763 14.3737 37.0713 13.7639 37.5679 13.6815L39.1386 13.4208C39.3648 13.3832 39.5786 13.292 39.7623 13.1549L40.5199 12.5889C41.1693 12.1038 41.5517 11.3408 41.5517 10.5303V10.4014C41.5517 9.67199 41.2076 8.98533 40.6232 8.54882V8.54882C39.9239 8.02643 38.99 7.94237 38.2086 8.33148L36.5613 9.15177C36.4402 9.21208 36.3248 9.28314 36.2164 9.3641L35.1054 10.194C34.6731 10.5169 34.0585 10.4116 33.7583 9.96318V9.96318Z" fill="black"/>
<path d="M24.6807 12.2676C23.9227 12.5192 23.1854 11.835 23.3799 11.0604V11.0604C23.4246 10.8821 23.5171 10.7193 23.6474 10.5896L24.427 9.81305C24.8065 9.43509 25.1225 8.99836 25.3628 8.51969L26.0763 7.09852C26.3922 6.46928 26.7799 5.87876 27.2317 5.33877L27.6901 4.79097C28.631 3.66647 29.9045 2.8697 31.3273 2.51545L31.9686 2.35576C32.8225 2.14315 33.7192 2.17747 34.5544 2.45473L34.6491 2.48618C35.757 2.85398 36.6735 3.64659 37.1972 4.68983L37.3855 5.06488C37.7374 5.76589 37.826 6.56996 37.635 7.33076L37.6075 7.44051C37.4807 7.94535 37.2189 8.40616 36.8501 8.77347L35.5452 10.0731C35.1484 10.4683 34.5068 10.4683 34.11 10.0731V10.0731C33.6703 9.63528 33.7219 8.90921 34.219 8.53789L34.7197 8.16389C35.1131 7.87001 35.3448 7.40773 35.3448 6.91667V6.54463C35.3448 5.67248 34.8513 4.87543 34.0706 4.48666L34.0478 4.47527C33.5495 4.22716 32.9792 4.16475 32.4391 4.29923L31.9753 4.4147C31.469 4.54078 30.9957 4.77433 30.5875 5.09951L30.0379 5.53744C29.109 6.27756 28.388 7.24602 27.9453 8.34816L27.7863 8.74423C27.6531 9.0758 27.4936 9.39617 27.3092 9.70224L26.3192 11.3456C26.1354 11.6506 25.8488 11.8798 25.5109 11.992L24.6807 12.2676Z" fill="black"/>
<path d="M22.931 28.3031C22.931 30.0101 21.7731 27 20.3448 27C18.9165 27 17.7586 30.0101 17.7586 28.3031C17.7586 26.596 18.9165 25.2122 20.3448 25.2122C21.7731 25.2122 22.931 26.596 22.931 28.3031Z" fill="black"/>
<path d="M41 28.0909C41 29.798 42.1579 26.7879 43.5862 26.7879C45.0145 26.7879 46.1724 29.798 46.1724 28.0909C46.1724 26.3838 45.0145 25 43.5862 25C42.1579 25 41 26.3838 41 28.0909Z" fill="black"/>
<ellipse cx="46.7241" cy="33.9697" rx="3.10345" ry="2.57576" fill="#F7D6FF"/>
<ellipse cx="16.7241" cy="33.9697" rx="3.10345" ry="2.57576" fill="#F7D6FF"/>
<path d="M27.069 35.5151H37.4138L35.3448 39.1212H28.6207L27.069 35.5151Z" fill="#FFA800"/>
<path d="M25.5172 36.5454H26.1917C27.0848 36.5454 27.9415 36.8992 28.5742 37.5295V37.5295C28.945 37.8987 29.3964 38.1767 29.893 38.3415L30.0583 38.3964C30.4765 38.5352 30.9143 38.606 31.3549 38.606H32.7586V38.606C33.439 38.606 34.1101 38.4482 34.7191 38.1449L34.8276 38.0909L35.5094 37.7513C35.7255 37.6437 35.8621 37.4231 35.8621 37.1817V37.1817C35.8621 36.8303 36.147 36.5454 36.4984 36.5454H38.4483L38.3382 36.7647C38.0685 37.3019 37.7139 37.792 37.2881 38.2161V38.2161C37.0277 38.4754 36.7424 38.7084 36.4362 38.9117L36.3315 38.9812C35.6785 39.4147 34.9561 39.7331 34.1956 39.9225L34.1348 39.9376C33.5643 40.0796 32.9786 40.1515 32.3907 40.1515H31.4965C30.9606 40.1515 30.4267 40.086 29.9067 39.9565V39.9565C29.0579 39.7452 28.2597 39.3667 27.5589 38.8432L27.5027 38.8012C26.8733 38.3311 26.3285 37.7573 25.8915 37.1045L25.5172 36.5454Z" fill="black"/>
<path d="M22.931 34.4824C22.931 33.5922 23.575 32.8325 24.4532 32.6867L25.4089 32.5281C25.8213 32.4597 26.2145 32.3047 26.5627 32.0735L28.0991 31.0534C28.7866 30.597 29.5472 30.2618 30.3479 30.0624V30.0624C30.9184 29.9203 31.5042 29.8485 32.0921 29.8485H32.1215C33.2209 29.8485 34.3053 30.1036 35.2895 30.5937L35.3693 30.6334C35.6972 30.7967 36.0097 30.9891 36.3031 31.2082L37.0624 31.7754C37.6263 32.1967 38.3114 32.4243 39.0153 32.4243H39.4963C39.8248 32.4243 40.146 32.5212 40.4196 32.7029V32.7029C41.0789 33.1406 41.3402 33.9812 41.0453 34.7156L40.8031 35.3186C40.6169 35.7821 40.2944 36.1783 39.8783 36.4546L39.7299 36.5531C39.2314 36.8841 38.6464 37.0606 38.048 37.0606H36.5151C35.74 37.0606 34.9698 36.9361 34.2341 36.6919V36.6919C32.9324 36.2598 31.5348 36.2063 30.2039 36.5376L28.8754 36.8684C28.3627 36.9961 27.8363 37.0606 27.3079 37.0606H26.5033C25.858 37.0606 25.2247 36.8858 24.6708 36.5548L23.8176 36.0449C23.2677 35.7164 22.931 35.123 22.931 34.4824V34.4824Z" fill="black"/>
<path d="M25.8204 33.4218C25.9621 33.4435 26.1064 33.4409 26.2472 33.4142L26.7865 33.3119C27.3153 33.2115 27.8216 33.0166 28.2811 32.7364L29.1594 32.2009C29.7154 31.8618 30.327 31.6239 30.966 31.498V31.498C31.3173 31.4288 31.6746 31.3939 32.0327 31.3939H32.3969C33.0346 31.3939 33.6667 31.5139 34.2601 31.7477V31.7477C34.656 31.9037 35.0308 32.1089 35.3756 32.3583L36.081 32.8685C36.3481 33.0617 36.6444 33.2109 36.9587 33.3104V33.3104C37.2603 33.4059 37.5748 33.4545 37.8912 33.4545H38.317C38.4041 33.4545 38.4908 33.4424 38.5746 33.4186V33.4186C39.0757 33.276 39.5973 33.5676 39.7383 34.0692L39.7478 34.1029C39.8889 34.6049 39.6106 35.1293 39.1156 35.2936L38.673 35.4405C38.5242 35.4899 38.3683 35.5151 38.2115 35.5151H37.0977H35.317C34.7631 35.5151 34.2116 35.4439 33.6759 35.3032V35.3032C32.7318 35.0552 31.7439 35.0244 30.7862 35.2131L30.1441 35.3396C29.5514 35.4563 28.9487 35.5151 28.3445 35.5151H27.3851H25.3981C24.8708 35.5151 24.4217 35.1319 24.3388 34.6112V34.6112C24.2245 33.8935 24.8418 33.2723 25.5601 33.3821L25.8204 33.4218Z" fill="#FFA800"/>
<path d="M0 28.0909C0 23.0701 4.07014 19 9.09091 19V19C9.59299 19 10 19.407 10 19.9091V40.0909C10 40.593 9.59299 41 9.09091 41V41C4.07014 41 0 36.9299 0 31.9091V28.0909Z" fill="#FF5252"/>
<path d="M62 28.0909C62 23.0701 57.9299 19 52.9091 19V19C52.407 19 52 19.407 52 19.9091V40.0909C52 40.593 52.407 41 52.9091 41V41C57.9299 41 62 36.9299 62 31.9091V28.0909Z" fill="#FF5252"/>
</svg>
