<svg width="12" height="12" viewBox="0 0 12 12" fill="none" xmlns="http://www.w3.org/2000/svg">
<g clip-path="url(#clip0_13_154)">
<path d="M8.825 3.175C8.1025 2.45 7.105 2 6 2C3.79 2 2.005 3.79 2.005 6C2.005 8.21 3.79 10 6 10C7.8625 10 9.4225 8.725 9.865 7H8.825C8.4125 8.165 7.3075 9 6 9C4.3425 9 3 7.6575 3 6C3 4.3425 4.3425 3 6 3C6.8275 3 7.57 3.345 8.1125 3.8875L6.5 5.5H10V2L8.825 3.175Z" fill="#BDBDBD"/>
</g>
<defs>
<clipPath id="clip0_13_154">
<rect width="12" height="12" fill="white"/>
</clipPath>
</defs>
</svg>
