<?xml version="1.0" standalone="no"?>
<!DOCTYPE svg PUBLIC "-//W3C//DTD SVG 20010904//EN"
 "http://www.w3.org/TR/2001/REC-SVG-20010904/DTD/svg10.dtd">
<svg version="1.0" xmlns="http://www.w3.org/2000/svg"
 width="700.000000pt" height="700.000000pt" viewBox="0 0 700.000000 700.000000"
 preserveAspectRatio="xMidYMid meet">
<metadata>
Created by potrace 1.14, written by Peter Selinger 2001-2017
</metadata>
<g transform="translate(0.000000,700.000000) scale(0.100000,-0.100000)"
fill="#000000" stroke="none">
<path d="M3397 6434 c-1 -1 -45 -4 -97 -7 -156 -10 -317 -37 -540 -91 -38 -10
-191 -60 -245 -81 -836 -323 -1467 -1010 -1720 -1875 l-37 -125 -59 -19 c-292
-92 -539 -341 -647 -651 -46 -132 -51 -197 -48 -570 3 -344 3 -351 29 -443 82
-286 263 -513 514 -644 90 -47 216 -92 288 -103 78 -12 91 -14 156 -16 81 -2
114 16 131 72 l11 39 24 -42 c223 -393 608 -758 1043 -990 187 -100 475 -209
640 -243 8 -2 44 -10 80 -18 73 -17 232 -42 330 -53 100 -10 383 -11 505 -2
844 66 1612 509 2062 1191 l65 98 23 -25 c13 -14 33 -26 45 -27 11 -1 28 -2
38 -2 20 -1 149 11 177 17 135 27 295 95 399 170 116 84 216 191 289 311 39
64 103 212 111 258 2 15 7 35 10 45 17 55 20 107 22 407 3 349 -3 431 -45 562
-84 262 -277 485 -526 607 -49 24 -111 50 -138 57 -43 12 -48 17 -58 54 -68
267 -195 564 -339 794 -62 99 -165 247 -180 261 -3 3 -23 28 -45 55 -38 47
-93 107 -182 200 -264 272 -622 505 -996 650 -156 60 -369 116 -547 145 -41 6
-85 13 -98 15 -70 11 -435 27 -445 19z m-37 -348 c0 -2 -27 -20 -60 -40 -70
-44 -142 -112 -226 -216 -65 -79 -88 -116 -158 -251 l-43 -83 -69 -19 c-378
-102 -688 -253 -989 -481 -222 -167 -438 -401 -599 -649 -42 -64 -76 -121 -76
-127 0 -20 -18 -10 -24 15 -12 46 92 328 186 506 60 113 83 154 126 219 403
615 1032 1016 1747 1115 89 12 185 18 185 11z m930 -122 c74 -25 203 -79 285
-119 141 -70 336 -186 343 -206 2 -5 8 -9 13 -9 6 0 54 -35 107 -79 322 -261
572 -591 736 -972 52 -121 110 -288 103 -295 -2 -2 -25 30 -52 72 -180 285
-448 552 -762 760 -51 34 -90 63 -87 66 7 8 7 114 -1 163 -9 61 -68 174 -122
234 -75 83 -181 149 -288 177 -50 14 -232 13 -286 -1 -24 -6 -27 -4 -32 28 -7
46 -53 143 -89 190 -19 23 -25 37 -16 37 7 0 74 -21 148 -46z"/>
</g>
</svg>
